<?xml version="1.0" standalone="yes"?>
<svg xmlns="http://www.w3.org/2000/svg" width="1600" height="510">
<path style="fill:#fefdfd; stroke:none;" d="M0 0L0 510L1600 510L1600 0L0 0z"/>
<path style="fill:#6f0608; stroke:none;" d="M135 35.6381C127.579 37.7706 120.197 43.698 114 48.1551C98.1681 59.5414 83.5494 73.0056 71.081 88C32.3978 134.52 15 193.18 15 253C15 282.234 18.8255 311.871 30.4275 339C35.7397 351.422 42.6028 363.231 50.7485 374C89.1927 424.823 153.949 435.027 212 449.13C226.726 452.707 241.2 458.441 256 461.385C272.741 464.716 290.699 463.824 307 458.964C351.894 445.578 383.712 405.02 400.734 363C418.534 319.057 424.795 272.013 420.17 225C416.572 188.434 408.005 152.223 389.573 120C371.77 88.8771 346.544 60.9902 312 48.6983C296.594 43.2162 280.101 43.0193 264 41.9105C244.328 40.5557 224.706 38.8249 205 37.9606C188.28 37.2273 171.853 35 155 35C148.685 35 141.114 33.8813 135 35.6381z"/>
<path style="fill:#fefdfd; stroke:none;" d="M223 449C214.979 440.248 203.576 434.166 194.95 425.711C179.918 410.976 167.738 391.962 158.781 373C135.459 323.625 128.776 267.702 135.841 214C140.527 178.38 150.762 143.654 169.95 113C189.103 82.4017 221.532 48.0613 260 45C255.823 42.1465 250.839 43.2908 246 42.8302C234.346 41.7212 222.637 40.9377 211 39.8302C193.5 38.1649 175.591 37 158 37C151.074 37 142.747 35.7501 136 37.419C126.163 39.8524 115.941 49.3807 108 55.3742C81.0999 75.6773 59.0178 103 43.8056 133C24.8845 170.314 17 211.468 17 253C17 303.852 30.6091 355.163 69 390.91C86.007 406.746 107.021 418.326 129 425.645C142.069 429.997 155.729 432.471 169 436.086C178.617 438.705 188.363 440.735 198 443.285C206.181 445.45 214.527 448.308 223 449M264 45.4283C219.583 51.86 186.076 86.1198 165.54 124C126.073 196.802 125.283 290.54 157.579 366C172.431 400.703 198.381 436.415 234 451.826C241.607 455.118 250.883 456.576 259 458.2C269.28 460.256 279.465 462.008 290 460.714C333.973 455.313 366.478 421.701 387.427 385C411.439 342.934 421.14 292.973 419.039 245C417.358 206.614 411.42 168.935 394.244 134C370.12 84.9311 323.802 36.7687 264 45.4283z"/>
<path style="fill:#6f0608; stroke:none;" d="M196 100C200.995 98.597 203.535 94.9106 207.17 91.4244C211.575 87.1996 216.179 83.1674 221 79.4252C238.392 65.9252 263.575 55.6956 286 59.3248C334.178 67.1221 367.686 106.651 385.403 150C416.662 226.486 413.502 326.066 364.309 394.83C355.87 406.626 345.7 418.054 334 426.714C324.109 434.035 313.59 439.475 302 443.562C294.345 446.261 286.054 446.999 278 447C225.523 447.003 190.783 402.287 170.255 359C156.378 329.737 152.194 296.78 149.17 265C148.221 255.032 149.231 244.916 149.91 235C151.494 211.878 155.112 187.931 163.054 166C166.898 155.385 171.192 145.102 176.247 135C179.169 129.159 183.555 123.637 184 117C168.8 134.431 161.589 161.136 155.718 183C151.912 197.175 150.263 211.44 148.83 226C143.345 281.757 152.847 342.106 183.698 390C202.121 418.599 231.629 445.448 267 448.83C279.341 450.01 291.091 448.437 303 445.37C311.814 443.101 320.318 438.961 328 434.113C339.084 427.116 349.25 418.052 357.675 408C393.709 365.008 407 307.937 407 253C407 209.789 399.027 166.158 377.83 128C355.52 87.8365 316.816 52.6078 268 57.8341C259.908 58.7004 252.611 60.3516 245 63.2577C236.047 66.6762 227.669 70.8092 220 76.6543C211.353 83.2445 202.281 91.0837 196 100M220 100C226.058 98.3503 230.595 93.4292 236 90.3372C248.358 83.2671 264.528 77.2744 279 78.0934C310.526 79.8773 337.072 100.077 354.859 125C385.482 167.91 393.247 219.493 391.985 271C391.563 288.226 385.011 304.822 385 322C387.962 315.849 389.273 307.736 390.414 301C392.773 287.062 394 273.126 394 259C394 204.622 382.71 149.443 344.83 108.004C319.702 80.5146 279.898 68.5262 245 83.3495C236.669 86.8885 224.846 91.9906 220 100M637 119L632 120C636.68 133.05 662.59 129.351 666.343 116.996C670.343 103.831 650.271 106.686 645.712 98.8928C641.723 92.0719 654.337 88.3974 659 89.5864C663.393 90.7068 666.298 93.6492 671 94C666.848 82.3549 641.983 83.3345 639.337 96.0008C636.727 108.496 657.759 105.227 660.744 114.044C661.999 117.752 657.837 121.294 654.996 122.86C648.497 126.444 641.424 124.599 637 119M780 87L779 91L784 91L784 87L780 87M817 127L822 127C823.826 113.443 829.909 100.707 831 87C825.926 88.6015 825.538 93.2855 824.374 98C821.981 107.693 819.703 117.385 817 127M841 87L840 91L845 91L845 87L841 87M884 87L884 91C887.013 90.4917 887.873 89.8406 889 87L884 87M982 87L982 91C985.066 90.503 986.032 89.9641 987 87L982 87M247 100C253.406 102.607 264.085 97.1356 271 96.2863C283.35 94.7696 296.919 97.915 308 103.373C359.69 128.836 379.675 195.523 380.985 249C381.271 260.646 380.077 272.433 378.834 284C378.206 289.85 375.768 296.243 377 302C380.073 296.878 379.965 289.821 380.92 284C383.741 266.799 384.227 248.317 382.155 231C380.917 220.656 379.457 210.176 377.185 200C366.935 154.087 336.41 100.34 285 94.1844C271.762 92.5994 259.58 96.6371 247 100M683 101L684 98L679 98C676.883 112.335 671.935 127.031 668 141L673 141C673.787 135.181 676.213 129.819 677 124C679.114 125.888 681.097 127.24 684.004 127.631C693.605 128.923 700.889 120.699 702.532 112C704.271 102.797 700.191 95.6592 690.002 97.8256C687.279 98.4045 685.29 99.4819 683 101M734 120C727.155 120.497 714.252 131.057 712.148 118.024C711.885 116.392 712.006 114.645 712 113L728 113C730.198 112.995 733.412 113.467 735.258 111.972C739.488 108.547 735.763 100.582 731.895 98.6528C723.879 94.6552 713.531 99.5251 709.684 107.001C707.361 111.516 705.413 119.305 708.742 123.775C715.115 132.331 728.987 126.747 734 120M765 120C759.901 120.378 755.1 126.005 750.019 124.353C739.341 120.881 747.7 104.814 754.09 101.461C759.409 98.6699 763.705 103.608 769 104C764.856 96.2663 755.036 95.2598 748.184 100.652C743.132 104.628 739.838 112.587 740.279 118.999C741.227 132.802 759.96 127.952 765 120M789 105C793.228 104.67 795.211 102.103 799.015 100.742C803.263 99.2203 812.57 103.701 806.562 107.973C801.049 111.893 792.827 109.313 787.133 114.394C782.39 118.626 782.092 125.647 789.018 127.312C794.129 128.54 799.241 126.748 804 125C805.54 126.803 806.597 126.832 809 127C808.157 118.845 814.757 109.776 812.562 102.059C809.626 91.7294 792.363 98.8544 789 105M899 102L899 98L895 98C892.994 107.725 889.326 117.155 888 127C895.395 125.767 894.54 114.848 896.993 109.004C900.002 101.836 907.024 100.422 914 101C913.926 109.983 910.145 118.135 909 127C914.701 126.011 915.105 119.921 916.37 115C918.029 108.552 921.911 96.8975 910.999 97.3835C909.333 97.4577 907.599 97.8365 906.002 98.3033C903.327 99.0848 901.253 100.416 899 102M943 125C940.099 133.504 932.092 143.944 924 134L919 135C923.625 143.427 936.589 142.882 942.606 135.895C946.106 131.831 947.342 126.068 948.626 121C950.56 113.363 952.5 105.736 954 98C951.706 98.3026 950.789 98.5785 949 100C938.428 93.9055 926.257 100.202 923.529 112C921.441 121.034 925.739 129.33 935.998 127.529C938.541 127.083 940.719 126.145 943 125M997 102L997 98C991.963 98.874 991.885 102.585 990.714 107C988.946 113.668 986.888 120.126 986 127C995.315 125.384 991.59 110.264 997.43 104.638C1000.53 101.648 1009.29 98.1992 1011.31 104.113C1012.44 107.445 1010.47 111.838 1009.5 115C1008.3 118.948 1007.34 122.885 1007 127L1011 127C1012.74 119.402 1023.72 95.9016 1008 97.5548C1006.31 97.7322 1004.6 98.21 1003 98.76C1000.74 99.5378 998.961 100.665 997 102M777 98C775.68 107.794 772.001 117.306 770 127L775 127C775.805 117.147 779.463 107.503 782 98L777 98M831 127C836.055 126.122 835.93 122.371 837.205 118C839.113 111.464 841.406 104.813 842 98C837.393 98.7999 837.092 101.838 836 106C834.214 112.806 831.576 120.007 831 127M850 101L867 101C862.354 105.647 857.808 110.431 853 114.91C848.946 118.687 844.551 121.477 843 127C849.738 127 864.757 129.884 869 124L850 124C854.632 119.368 859.17 114.613 863.985 110.171C867.964 106.5 872.479 103.358 874 98C867.768 98 853.69 95.3081 850 101M875 127L879 127C881.005 117.285 884.676 107.829 886 98C880.952 98.8759 880.915 102.612 879.634 107C877.725 113.542 875.557 120.177 875 127M973 127L977 127C979.006 117.275 982.674 107.845 984 98C978.778 98.8689 978.736 102.448 977.441 107C975.568 113.589 973.3 120.106 973 127z"/>
<path style="fill:#fefdfd; stroke:none;" d="M713 111L732 111C731.992 108.214 732.377 104.816 730.821 102.344C725.141 93.3244 714.474 104.799 713 111M689 100.538C681.741 102.169 677.836 111.958 678.618 118.985C679.108 123.382 684.038 125.512 688 124.551C694.459 122.984 698.79 114.258 698.837 108C698.879 102.468 694.163 99.3774 689 100.538M938.015 100.537C931.438 102.082 927.602 109.651 927.228 116C926.896 121.639 931.396 125.705 937 124.59C947.697 122.463 953.249 96.9576 938.015 100.537z"/>
<path style="fill:#6f0608; stroke:none;" d="M187 103L187 210L218 210L218 173C224.178 173 232.416 171.629 237.895 175.09C247.368 181.072 243.789 200.421 245 210L277 210C276.202 206.915 274.45 204.221 274.108 200.996C272.664 187.397 277.042 163.493 258 161C262.083 157.261 266.733 155.051 269.633 150C278.07 135.308 273.301 112.803 257 106.468C247.787 102.887 236.738 103 227 103L187 103M269 110C274.032 113.812 283.745 112.26 290 113.461C299.958 115.371 309.973 120.385 318 126.503C354.981 154.689 369.905 206.221 370.985 251C371.336 265.533 367.119 279.593 367 294L369 294C374.876 247.75 373.205 200.551 349.421 159C337.97 138.994 320.543 120.215 298 113.05C288.552 110.047 278.79 110 269 110z"/>
<path style="fill:#fefdfd; stroke:none;" d="M807 110C803.997 110.566 800.917 110.969 798 111.9C796.023 112.532 793.89 113.29 792.133 114.414C789.155 116.318 786.521 121.396 790.322 123.972C793.939 126.424 801.45 124.701 804.012 121.362C806.192 118.52 806.536 113.447 807 110z"/>
<path style="fill:#6f0608; stroke:none;" d="M276 124L276 126C334.009 128.491 358.805 196.787 360.961 246C361.613 260.903 358.305 275.241 358 290L360 290C360.694 273.878 363.676 258.338 362.961 242C360.823 193.196 333.92 124.16 276 124z"/>
<path style="fill:#fefdfd; stroke:none;" d="M218 128L218 149C224.438 149 234.102 150.785 239.892 147.543C246.786 143.684 245.484 132.937 238.956 129.457C233.225 126.401 224.308 128 218 128z"/>
<path style="fill:#6f0608; stroke:none;" d="M221 141C224.314 137.936 227.403 134.69 230 131C224.875 132.44 221.815 135.719 221 141M230 146C234.862 144.675 239.435 141.366 242 137C236.788 138.355 233.106 141.683 230 146M276 137L276 139C296.83 139.172 314.781 151.65 326.844 168C344.435 191.843 352.971 223.566 352.971 253C352.971 265.167 349.548 277.006 349 289C352.711 286.38 352.572 281.26 353.05 277C354.247 266.345 354 255.722 354 245C354 200.341 328.447 137.035 276 137M465 146C463.18 159.516 457.109 172.416 456 186L461 186C461.957 174.278 466.062 162.357 469 151C472.219 159.531 474.625 168.396 477.692 177C478.724 179.895 479.773 184.772 483.209 185.663C488.587 187.057 489.476 180.724 490.35 177C492.778 166.644 495.846 156.434 498 146L493 146C491.012 157.735 487.273 169.279 485 181C481.589 173.304 479.32 164.989 476.667 157C475.679 154.026 474.946 149.022 472.298 147.028C470.364 145.572 467.265 146.008 465 146M674 146C674 155.388 674.999 164.635 675 174C675 177.02 674.006 182.819 676.742 184.968C680.987 188.302 684.132 181.828 685.637 178.999C690.352 170.13 697.229 159.937 699 150C700.692 155.725 700 162.06 700 168C700 174.077 700.741 179.961 701 186C707.862 185.775 709.265 181.549 712.306 176C717.569 166.396 724.693 156.451 728 146C721.925 146.483 720.812 151.166 718.139 156C713.54 164.314 710.384 174.93 704 182C704.899 177.864 704.117 174.175 704.015 170C703.819 162.009 704 153.993 704 146C696.716 146.238 695.221 151.051 692.247 157C688.093 165.308 683.362 173.334 680 182C676.806 171.194 679 157.256 679 146L674 146M734 146L734 150L738 151L739 146L734 146M768 146L765 159C756.033 154.3 746.099 156.354 741.403 166.004C739.026 170.887 736.663 181.248 742.344 184.821C747.111 187.819 754.121 185.291 759 184C759 186.392 760.567 185.948 763 186C764.817 172.508 771.404 159.677 772 146L768 146M798 146C796.183 159.495 789.595 172.344 789 186L793 186C794.471 178.869 795.024 167.575 801.109 162.8C804.323 160.278 811.271 157.255 813.882 162.229C815.121 164.591 813.969 167.647 813.279 170C811.72 175.319 810.388 180.637 809 186L814 186C815.048 178.22 825.893 155.274 811 156.228C809.294 156.337 807.606 156.821 806.002 157.387C803.466 158.28 801.261 159.578 799 161L803 146L798 146M850 146C847.285 159.16 841.587 172.524 841 186L867 186L867 183L846 183L855 146L850 146M901 146C898.202 159.383 893.289 172.533 891 186C900.515 186 911.555 187.549 919.985 182.185C928.72 176.628 938.352 156.516 926.892 148.858C920.131 144.34 908.706 146 901 146M961 146C959.926 159.498 954.58 172.697 952 186L957 186C957.565 181.805 958.038 174.535 961.433 171.603C966.778 166.989 977.611 170.386 983.985 166.721C989.549 163.522 994.322 153.514 987.852 148.742C984.282 146.109 978.254 146.054 974 146.004C969.668 145.952 965.332 146 961 146M1010 186L1040 186L1040 183L1016 183C1016.6 178.561 1017.45 169.623 1022.14 167.603C1027.6 165.257 1035.3 169.708 1039 164L1020 164C1021.47 160.096 1021.68 153.594 1024.73 150.603C1026.61 148.752 1029.57 149.017 1032 149.001L1048 149L1048 146L1029 146C1026.49 146.001 1022.73 145.397 1020.59 147.028C1018.06 148.958 1017.9 154.141 1017.09 157C1014.39 166.597 1012.5 176.351 1010 186M1093 146C1091.24 159.6 1085.83 172.434 1084 186C1092.17 185.349 1092.14 173.622 1093 167C1098.71 167 1108.34 169.071 1112 164L1094 164C1095.48 159.97 1095.91 151.539 1100.23 149.603C1106.62 146.737 1116.36 152.427 1121 146L1093 146M1129 146L1129 150L1133 150L1134 146L1129 146M1133 186C1138.29 185.083 1138.41 180.575 1139.71 176C1142.48 166.24 1145.65 156.06 1147 146C1141.54 146.911 1141.65 151.34 1140.16 156C1137.23 165.225 1133.49 176.353 1133 186M183 147C177.53 162.076 170.819 176.283 167.039 192C153.458 248.459 158.376 313.474 186.309 365C194.582 380.261 205.08 394.207 218 405.829C225.245 412.347 234.086 418.348 243 422.334C249.691 425.326 257.733 427.939 265 428.935C312.13 435.399 349.369 401.21 370 362C365.665 363.642 364.057 367.179 361.684 371C358.003 376.927 354.4 382.66 349.866 388C335.803 404.562 319.146 418.474 298 424.792C262.427 435.419 226.607 415.779 204.885 388C170.351 343.836 156.1 281.352 163.289 226C165.622 208.04 168.963 188.984 175.461 172C177.972 165.436 185.759 153.833 183 147M273 149C276.159 150.326 279.649 149.95 283 150.749C291.859 152.862 299.648 156.003 306.999 161.478C335.971 183.058 346.471 225.556 344.961 260C344.551 269.344 342.178 278.726 341 288C344.691 285.228 344.798 280.324 345.421 276C346.86 266.002 347.116 256.091 346.996 246C346.575 210.617 329.592 163.261 293 151.04C286.395 148.834 279.868 149 273 149z"/>
<path style="fill:#fefdfd; stroke:none;" d="M905 149C902.648 160.394 898.557 171.438 897 183C904.014 183 911.956 183.75 917.957 179.348C925.309 173.954 931.425 156.959 921.945 150.858C917.276 147.853 910.292 149 905 149M965 149C964.501 155.111 962.268 160.854 962 167C968.178 167 975.608 168.072 980.956 164.297C986.136 160.64 988.061 152.569 980.981 149.742C976.37 147.901 969.891 149 965 149z"/>
<path style="fill:#6f0608; stroke:none;" d="M780 150L779 157L775 157C775.98 158.783 775.908 158.594 778 159C776.611 166.189 771.53 175.63 773.111 182.972C774.09 187.516 782.091 187.243 783 183C772.073 183.946 781.206 164.871 782 159L789 159L789 157L783 157L784 150L780 150M504 164C508.226 163.67 510.218 161.126 514.015 159.738C517.935 158.306 526.202 161.408 521.392 166.258C516.969 170.717 507.479 168.225 502.225 172.649C498.513 175.774 496.469 183.051 502.109 185.397C507.163 187.498 514.09 185.556 519 184C520.54 185.803 521.598 185.832 524 186C522.865 177.802 529.727 169.145 527.552 161.055C524.697 150.437 507.168 157.372 504 164M542 160C541.422 157.302 540.739 157.211 538 157C536.562 166.773 533.001 176.306 531 186C536.222 185.131 536.264 181.552 537.559 177C539.916 168.71 541.968 157.97 553 160C553.986 158.521 554 158.797 554 157C549.158 155.683 546.002 157.186 542 160M562 159C562 156.608 560.433 157.052 558 157C557.219 166.552 553.6 176.753 551 186C562.891 184.023 555.493 163.493 567.976 159.818C569.76 159.293 571.237 159.677 573 160C573.986 158.521 574 158.797 574 157C569.423 155.755 566.261 157.264 562 159M589 156.468C580.447 158.098 575.505 164.754 573.823 173C572.982 177.129 573.225 182.208 577.225 184.682C580.523 186.723 586.328 186.392 590 185.657C605.993 182.453 610.059 152.455 589 156.468M1157 161L1158 157C1156.22 157.142 1154.4 157.058 1153.16 158.603C1151.45 160.732 1151.26 164.426 1150.63 167C1149.08 173.248 1146.64 179.61 1146 186L1151 186C1151.55 179.706 1153.54 167.862 1158.23 163.39C1160.58 161.149 1166.4 157.699 1168.96 161.449C1170.43 163.611 1169.41 166.706 1168.87 169C1167.55 174.609 1165.57 180.275 1165 186C1174.35 184.444 1170.9 169.473 1176.51 163.557C1178.91 161.035 1186.45 157.222 1188.31 162.232C1189.63 165.799 1187.25 171.584 1186.16 175C1185 178.64 1184.04 182.323 1183 186C1184.81 185.856 1186.59 185.927 1187.86 184.397C1189.84 182.03 1190.12 177.893 1190.88 175C1192.71 168.07 1197.82 155.789 1186 156.225C1184.65 156.275 1183.26 156.677 1182 157.132C1179.46 158.048 1177.24 159.534 1175 161C1172.27 152.369 1162.13 157.377 1157 161M610 157L611 186C622.716 185.616 623.775 168.148 631 161C628.633 169.009 630.999 177.768 631 186C636.848 185.549 638.563 181.775 641.281 177C644.993 170.477 649.031 163.891 652 157C643.081 158.442 637.158 175.111 635 183C632.634 174.997 634 165.32 634 157C622.136 157.393 621.025 174.761 614 182L614 157L610 157M725 186L729 186C730.996 176.331 734.682 166.737 736 157C730.972 157.837 730.377 161.477 729.151 166C727.378 172.541 725.539 179.23 725 186M1126 157C1124.67 166.879 1120.9 176.242 1119 186L1124 186C1125.33 176.146 1128.99 166.725 1131 157L1126 157M267 160C271.171 162.412 277.212 160.684 282 161.171C289.027 161.884 296.228 165.246 302 169.221C331.009 189.196 339.455 230.082 337.961 263C337.58 271.386 334.667 279.613 334 288C337.292 285.505 337.689 280.93 338.385 277C340.085 267.4 340.004 257.711 340 248C339.988 217.189 326.2 174.81 295 162.465C285.683 158.778 276.693 159.235 267 160z"/>
<path style="fill:#fefdfd; stroke:none;" d="M588.004 159.653C576.91 163.151 573.352 188.387 588.961 183.346C599.905 179.812 603.871 154.649 588.004 159.653M753.04 159.657C743.08 162.793 738.04 187.155 752.999 183.196C759.877 181.376 764.142 171.918 763.382 165.015C762.846 160.142 757.186 158.351 753.04 159.657z"/>
<path style="fill:#6f0608; stroke:none;" d="M274 171C289.69 167.394 305.071 180.163 313.572 192C327.422 211.286 333.637 237.431 331.91 261C331.251 269.98 328.715 279.156 327 288C329.625 286.599 330.127 283.858 331 281C333.058 274.264 333.935 266.022 334 259C334.254 231.612 328.906 200.769 308 181.028C301.122 174.533 293.204 170.617 284 168.806C280.302 168.078 274.99 166.378 274 171z"/>
<path style="fill:#fefdfd; stroke:none;" d="M522 169C519.212 169.278 516.694 169.958 514 170.73C511.949 171.318 509.915 171.857 508.044 172.919C495.568 179.998 512.453 189.34 519.062 179.775C521.096 176.833 521.535 172.456 522 169z"/>
<path style="fill:#6f0608; stroke:none;" d="M221 176L222 177L221 176M230 176C225.764 182.284 221.361 188.215 221 196C225.223 190.422 229.589 182.586 232 176L230 176M276 176C276.978 180.563 285.894 179.406 290 181.25C299.514 185.522 306.964 193.373 312.556 202C324.247 220.038 328.022 243.851 325.917 265C325.138 272.822 321.818 280.216 321 288C324.371 285.691 324.965 281.873 325.789 278C327.491 270.002 328 262.15 328 254C328 226.767 320.116 192.937 293 180.12C287.564 177.551 281.906 176.747 276 176M238 179C211.822 215.55 205.807 269.445 227.167 310C236.913 328.505 252.28 346.89 275 346.999C281.422 347.03 290 348.054 294 342C286.718 344.328 279.691 345.653 272 344.826C251.876 342.664 237.747 324.489 228.861 308C212.481 277.605 213.12 236.477 225.823 205C229.469 195.963 235.307 188.421 240 180L238 179M183 180C179.205 194.513 175.042 209.075 173.184 224C168.038 265.337 173.939 310.407 192.259 348C209.571 383.523 242.022 414.801 284 411.91C294.568 411.183 304.328 406.967 314 403C309.742 401.355 305.972 403.783 302 405.421C297.861 407.126 293.4 408.143 289 408.916C273.866 411.574 258.692 408.921 245 402.03C226.9 392.921 212.656 376.934 202.05 360C179.637 324.213 172.215 280.672 174.039 239C174.627 225.577 177.335 212.06 180.349 199C181.725 193.036 185.498 185.966 183 180M875 186C878.814 185.339 879.57 183.741 880 180C876.186 180.661 875.43 182.259 875 186M936 180L935 186L940 186L941 180L936 180M993 186C996.814 185.339 997.57 183.741 998 180C994.186 180.661 993.43 182.259 993 186M1051 180L1050 186L1055 186L1056 180L1051 180M276 184L276 186C311.814 187.542 322.223 232.215 320.961 261C320.664 267.753 318.535 274.279 318 281C320.924 278.774 320.957 275.488 321.611 272C322.875 265.26 323 258.842 323 252C323 223.714 310.08 184.282 276 184M240 188C234.753 197.667 229.112 206.4 225.722 217C216.339 246.339 219.233 283.42 235.005 310C243.937 325.054 257.986 336.89 276 337.94C281.201 338.243 292.313 337.773 294 332C273.563 341.551 254.796 331.687 241.669 315C223.261 291.6 219.158 256.413 225.424 228C227.385 219.109 230.426 209.97 234.862 202C237.2 197.798 241.703 192.967 240 188M276 191L276 193C304.651 193.595 316.66 229.037 316.66 253C316.66 260.994 313.063 270.329 315 278C318.687 271.077 319 261.698 319 254C319.002 228.047 307.389 191.09 276 191M276 197L276 199C300.859 200.084 312.899 230.433 313.147 252C313.233 259.426 311.317 266.62 311 274L313 274C313.499 267.671 314.832 261.353 314.985 255C315.559 231.215 304.415 197.235 276 197M240 200C221.984 230.873 221.018 272.787 238.873 304C247.166 318.498 262.347 331.143 280 329.381C284.921 328.89 291.045 328.318 294 324C286.871 325.212 280.456 329.1 273 327.621C236.25 320.331 225.533 271.359 229.285 240C230.423 230.491 232.778 221.838 236.449 213C238.17 208.857 241.564 204.521 240 200M277 202C280.487 206.643 288.364 207.359 292.961 211.329C303.826 220.712 308.712 237.065 309 251L311 251C310.938 228.568 300.44 206.548 277 202M280 208C282.416 211.221 286.792 212.004 289.961 214.532C294.324 218.015 297.629 223.011 300 228C296.191 223.062 292.709 217.411 287 214.443C276.753 209.116 263.286 214.375 258 224C259.027 219.399 262.216 216.673 266 214C257.284 211.275 250.768 228.539 249.236 235C245.089 252.487 245.602 274.812 258.185 288.996C265.852 297.638 289.352 304.8 294 289C289.002 292.084 284.175 296.647 278 296.866C264.025 297.36 251.062 278.739 250.602 266C250.34 258.766 255.82 255.212 257.969 249C259.322 245.089 256.652 241.056 257.358 237C258.122 232.613 261.426 229.099 263 225C268.266 225.65 271.927 221.916 277 221.603C280.879 221.363 285.294 223.925 289 225L288 223C291.411 225.951 294.41 229.309 297 233C299.121 233.228 298.89 233.151 300 235L298 234C299.169 240.317 298.226 245.029 296 251C299.194 250.987 301.271 251.403 302 248C303.111 249.742 303.271 250.119 305 251C304.796 246.253 303.607 241.698 303 237C305.369 241.371 305.898 246.059 306 251L308 251C307.654 234.236 299.583 209.764 280 208M927 208L927 243L961 243L961 208L927 208M241 210C226.744 237.896 227.224 275.409 244.44 302C252.236 314.041 264.431 322.342 279 321.985C284.244 321.857 291.127 320.713 294 316C286.524 317.771 279.872 321.007 272 319.331C248.665 314.362 237.967 288.017 234.59 267C233.579 260.71 232.523 254.378 233.285 248C234.34 239.18 235.77 230.413 238.671 222C240.037 218.037 243.332 213.859 241 210M186 213C183.722 222.248 183.556 231.574 182.91 241C180.32 278.822 187.525 319.672 208.308 352C222.727 374.429 243.473 393.166 271 395.83C278.788 396.584 286.374 395.437 294 394C288.124 391.603 278.504 394.145 272 393.985C262.939 393.763 253.763 390.256 246 385.711C203.113 360.606 185.172 305.233 184.015 258C183.646 242.955 186.117 227.888 188 213L186 213M196 213C185.687 254.842 191.705 305.294 214.953 342C225.842 359.193 241.625 375.193 262 380.101C273.07 382.768 282.943 381.405 294 380L294 378C285.264 378.555 276.93 381.534 268 379.402C242.238 373.251 223.7 353.948 211.745 331C192.748 294.533 190.503 252.792 198 213L196 213M205 213C201.611 223.01 201.622 233.604 200.91 244C198.469 279.66 206.635 318.229 230.428 346C242.221 359.765 258.653 369 277 369C282.199 369 290.599 369.469 294 365C285.38 366.778 276.805 368.196 268 366.532C252.835 363.667 239.201 352.741 229.808 341C209.886 316.099 200.656 280.582 202.039 249C202.572 236.838 204.686 224.933 207 213L205 213M213 213C208.947 224.949 208 238.462 208 251C208 280.492 213.887 311.673 233.326 335C243.992 347.8 259.883 357.993 277 357.998C282.291 358 290.745 357.627 294 353C287.91 354.711 281.373 356.326 275 355.91C254.782 354.59 238.728 339.242 228.471 323C207.458 289.724 207.318 250.239 215 213L213 213M245 213C234.33 239.008 230.915 269.749 246.314 295C253.746 307.188 264.454 315.342 279 314.985C284.964 314.839 291.087 313.602 294 308C289.056 310.055 284.453 312.534 279 312.909C265.163 313.861 254.111 303.193 247.616 292C233.329 267.38 236.22 237.768 248 213L245 213M294 301C288.884 303.691 283.935 306.613 278 306.895C268.495 307.347 260.231 301.157 254.68 293.996C244.486 280.847 240.586 262.363 242.17 246C243.361 233.691 248.893 224.286 253 213C245.715 216.785 243.573 227.538 241.888 235C237.021 256.551 240.085 286.489 258.015 301.671C265.271 307.816 274.667 310.473 284 308.319C288.453 307.292 292.521 305.479 294 301M294 295C289.377 297.561 284.491 301.377 279 301.62C259.831 302.466 248.931 279.951 246.325 264C243.164 244.656 249.908 229.331 259 213C251.346 215.354 248.898 225.18 246.579 232C239.393 253.132 243.242 282.721 261.001 297.786C268.8 304.402 289.864 307.528 294 295M464 213L464 384L503 384L503 330C520.913 330 540.015 332.199 554.985 320.32C562.52 314.342 566.392 305.948 569.19 297C576.291 274.287 575.39 240.113 555.961 223.329C543.788 212.813 529.064 213 514 213L464 213M585 213L585 384L619 384L619 213L585 213z"/>
<path style="fill:#fefdfd; stroke:none;" d="M257 230C264.4 222.75 272.221 212.004 284 217.839C286.13 218.894 288.1 220.28 289.907 221.819C292.363 223.912 294.168 226.373 296 229C296.755 220.231 283.473 213.555 276 214.056C267.151 214.648 260.018 222.155 257 230M264 225C273.578 221.031 277.828 219.083 288 223C281.158 215.166 270.133 217.599 264 225z"/>
<path style="fill:#6f0608; stroke:none;" d="M858 220L858 259L845 259L845 288L857 288C857 310.551 854.605 334.65 857.576 357C858.698 365.442 859.302 374.938 867.015 380.301C878.5 388.285 895.124 384.001 908 384L908 348C903.356 348 897.874 348.698 894.514 344.772C890.819 340.453 892 333.252 892 328L892 288L908 288L908 259L892 259L892 220L858 220z"/>
<path style="fill:#fefdfd; stroke:none;" d="M256 224C253.58 228.162 251.717 232.216 251 237C253.63 233.836 256.688 228.131 256 224z"/>
<path style="fill:#6f0608; stroke:none;" d="M264 250C252.38 256.045 249.19 273.712 263 279.366C268.246 281.513 274.556 281.545 280 280.073C282.66 279.353 285.264 277.582 288 277.279C291.202 276.924 293.888 279.395 297 279.853C302.158 280.611 307.789 280 313 280C310.401 276.31 303.306 271.617 302.965 267C302.67 262.988 307.813 258.005 309 254C305.438 254 301.616 253.61 298.09 254.147C293.268 254.88 291.711 257.496 288 253C290.573 251.771 292.444 250.495 293.992 247.981C295.119 246.15 295.705 244.131 295.891 242C297.056 228.685 282.927 224.155 272 226.681C265.503 228.183 259.677 232.735 260.225 240C260.499 243.634 262.379 246.828 264 250z"/>
<path style="fill:#fefdfd; stroke:none;" d="M300 228L302 236C302.916 232.9 301.895 230.547 300 228M297 230L298 231L297 230M256 231L255 235C256.146 233.36 256.393 232.924 256 231z"/>
<path style="fill:#6f0608; stroke:none;" d="M1573 337L1557 333C1554.81 340.77 1553.03 348.211 1548.41 354.999C1533.62 376.709 1505.59 374.536 1490.94 354C1486.21 347.374 1483.63 338.929 1482.25 331C1477.42 303.193 1479.83 255.795 1515 249.465C1528.63 247.011 1540.63 252.449 1548.16 264C1550.55 267.667 1551.9 275.519 1555.56 277.933C1559.11 280.279 1567.05 276.532 1571 276C1566.91 263.238 1562.56 251.246 1552 242.304C1530.61 224.193 1497.19 231.429 1480.47 252C1462.47 274.146 1461.39 308.152 1466.46 335C1469.22 349.624 1475.78 365.692 1487.01 375.816C1505.33 392.321 1538.52 391.295 1555.83 373.829C1565.32 364.248 1570.33 349.931 1573 337M1275 234L1275 385L1352 385L1352 368L1292 368L1292 234L1275 234M1372 234L1372 385L1449 385L1449 368L1388 368L1388 234L1372 234z"/>
<path style="fill:#fefdfd; stroke:none;" d="M254 236L253 240C254.303 238.332 254.553 238.008 254 236M275.608 237.029C272.066 239.887 276.864 246.152 280.682 243.338C285.494 239.791 279.912 233.555 275.608 237.029M300.333 237.667C300.278 237.722 300.222 238.778 300.667 238.333C300.722 238.278 300.778 237.222 300.333 237.667M250 239L250 242C250.696 240.446 250.696 240.554 250 239M301 240L301 244C301.71 242.24 301.71 241.759 301 240M253 242L254 243L253 242M249 243L249 263C251.087 258.027 251.087 247.973 249 243M252.333 244.667C252.278 244.722 252.222 245.778 252.667 245.333C252.722 245.278 252.778 244.222 252.333 244.667M503 252L503 291C511.277 291 521.785 292.563 528.895 287.298C538.504 280.182 537.034 260.615 526.985 254.8C519.974 250.743 510.769 252 503 252z"/>
<path style="fill:#6f0608; stroke:none;" d="M639 297L673 297C673.722 290.517 678.861 284.38 686 285.232C692.761 286.039 698.527 293.538 694.257 299.906C690.389 305.674 683.087 306.047 677 307.579C661.485 311.485 643.993 312.692 637.232 330.015C630.671 346.826 632.404 373.985 650 383.583C655.495 386.58 661.867 387.134 668 386.985C672.381 386.879 676.902 386.125 681 384.532C688.202 381.734 692.798 376.421 698 371C698.39 374.085 698.062 379.923 700.028 382.397C701.896 384.748 706.379 383.999 709 384L735 384C734.423 379.394 731.673 375.577 731.13 371C728.823 351.569 731 330.578 731 311C731 297.267 731.594 279.693 723.2 268.015C717.91 260.655 709.499 258.183 701 256.753C684.246 253.935 662.021 254.117 649.094 267.093C641.588 274.629 639.212 286.714 639 297M746 345C747.651 358.055 750.839 371.138 762 379.443C778.44 391.676 810.228 390.122 824.96 375.907C833.468 367.697 836.971 355.632 836.971 344C836.971 339.461 836.266 334.38 835.073 330C830.315 312.541 812.297 307.194 797 302.561C791.268 300.825 779.256 296.06 783.194 288.019C785.13 284.069 789.828 282.075 793.996 283.604C799.425 285.596 799.079 292.23 803.43 294.397C806.06 295.706 810.152 295 813 295L834 295C830.864 281.863 829.592 269.527 816.999 261.559C799.81 250.685 770.549 253.102 757.329 269.004C750.682 277.001 748.211 289.792 749.17 300C749.579 304.36 750.228 308.866 751.7 313C758.033 330.793 776.587 332.789 792 338.685C798.259 341.08 805.042 346.63 800.896 353.981C798.409 358.391 792.941 361.049 788.04 359.153C784.801 357.9 782.341 355.084 780.979 351.961C780.041 349.81 779.908 346.783 777.567 345.603C774.952 344.286 770.837 345 768 345L746 345M1075 336L1040 336C1038.58 346.505 1028.8 361.043 1018.39 348.906C1012.6 342.147 1011.26 330.619 1011.46 322C1011.66 312.85 1012.35 300.355 1018.68 293.189C1029 281.527 1038.78 296.782 1039 307L1074 307C1074 294.06 1070.76 280.844 1062.21 270.729C1047.07 252.811 1018.73 250.375 1000 263.789C985.174 274.407 977.223 296.158 977.004 314C976.721 337.07 979.094 363.096 999 378.316C1015.68 391.067 1043.46 390.186 1058.91 375.83C1069.5 365.988 1074.71 350.203 1075 336M1088 345C1088.58 358.467 1093.56 372.203 1105 380.095C1125.98 394.571 1167.38 388.394 1175.97 361.996C1180.7 347.467 1180.93 328.919 1169.7 317.174C1165.7 312.995 1160.25 310.025 1155 307.711C1146.27 303.863 1131.53 303.422 1125.74 294.895C1120.98 287.867 1129.11 281.426 1135.98 283.515C1141.16 285.088 1142.87 290.264 1144 295L1175 295C1174.99 284.956 1172.45 273.433 1164.91 266.184C1143.76 245.867 1098.74 253.46 1092.02 284C1089.09 297.316 1090.24 314.95 1101.09 324.532C1108.47 331.047 1117.86 333.408 1127 336.205C1134.79 338.59 1149.11 344.214 1142.14 354.906C1139.17 359.461 1133.82 360.783 1129.02 358.427C1123.19 355.572 1124.45 349.344 1120.26 346.028C1118 344.24 1113.68 345 1111 345L1088 345z"/>
<path style="fill:#fefdfd; stroke:none;" d="M281 267C280.306 265.518 279.848 264.226 278.684 263.015C277.893 262.192 277.041 261.16 275.981 260.66C269.524 257.614 266.537 267.894 273.059 269.577C274.329 269.905 275.759 269.398 276.955 269.04C278.41 268.605 279.694 267.732 281 267z"/>
<path style="fill:#6f0608; stroke:none;" d="M310 259C308.522 262.068 308.079 264.602 308 268L306 265C306.242 267.421 306.849 268.808 308 271C310.259 267.712 311.364 262.804 310 259M927 259L927 384L961 384L961 259L927 259M256 279C263.784 295.359 285.933 300.045 296 283L291 285C292.186 283.814 292.528 283.416 293 282L292 281C289.054 282.923 286.255 285.235 283 286.633C275.142 290.007 268.955 284.996 262 282C269.79 292.486 280.953 290.986 291 285C289.104 286.797 287.267 288.661 284.995 289.995C272.795 297.161 265.059 284.471 256 279M289 279C282.017 284.309 277.349 284.171 269 284C274.259 287.471 289.2 288.152 289 279M295 288C297.687 286.676 298.676 285.687 300 283C297.403 284.33 296.409 285.436 295 288M302 283C301.11 284.745 300.547 286.125 300 288C302.42 286.618 303.061 285.637 304 283L302 283M307 283L304 288C306.994 287.046 307.787 285.89 309 283L307 283M309 288C311.994 287.046 312.787 285.89 314 283C311.403 284.33 310.409 285.436 309 288M316 283L315 288C317.274 286.598 317.987 285.485 319 283L316 283M296 292L296 399L327 399L327 365C340.908 365 355.716 366.962 368 359.031C386.409 347.146 387.602 312.169 369.91 299.055C360.043 291.741 348.639 292 337 292L296 292z"/>
<path style="fill:#fefdfd; stroke:none;" d="M327 316L327 340C333.058 340 341.446 341.481 346.956 338.543C354.258 334.65 354.508 323.517 347.895 318.89C342.149 314.869 333.618 316 327 316z"/>
<path style="fill:#6f0608; stroke:none;" d="M338 320C335.14 325.437 330.891 330.871 330 337C335.011 333.728 338.952 325.806 340 320L338 320M347 323L340 337C344.901 335.382 349.501 327.874 347 323z"/>
<path style="fill:#fefdfd; stroke:none;" d="M696 329C689.462 331.029 679.582 333.556 674.214 337.85C667.819 342.966 668.433 355.968 677.005 358.427C694.58 363.469 696 340.318 696 329z"/>
<path style="fill:#6f0608; stroke:none;" d="M1192 362L1192 388L1203 388C1202.92 397.402 1199.66 404.674 1191 409C1191.7 412.931 1193.3 416.4 1195 420C1218.91 411.11 1214 382.336 1214 362L1192 362M330 372C331.753 370.67 332.67 369.753 334 368C331.374 368.839 330.839 369.374 330 372M347 368C342.358 376.04 333.871 381.699 330 390C338.255 386.151 345.985 376.059 350 368L347 368z"/>
<path style="fill:#fefdfd; stroke:none;" d="M224 449L225 450L224 449z"/>
</svg>
